PathFileType	4	(X/Y/Z)	C:/Users/beibeiliu/ov580/test_trc/capture2\sequence.25_training_dense_right.trc
DataRate	CameraRate	NumFrames	NumMarkers	Units	OrigDataRate	OrigDataStartFrame	OrigNumFrames
120	120	16	19	mm	120	301	343
Frame#	Time	ThumbCMC			ThumbMCP			ThumbIP			ThumbTip			IndexMCP			IndexPIP			IndexTip			MiddleMCP			MiddlePIP			MiddleTip			RingMCP			RingPIP			RingTip			PinkyMCP			PinkyPIP			PinkyTip			BackHand1			BackHand2			BackHand3	
		X0	Y0	Z0	X1	Y1	Z1	X2	Y2	Z2	X3	Y3	Z3	X4	Y4	Z4	X5	Y5	Z5	X6	Y6	Z6	X7	Y7	Z7	X8	Y8	Z8	X9	Y9	Z9	X10	Y10	Z10	X11	Y11	Z11	X12	Y12	Z12	X13	Y13	Z13	X14	Y14	Z14	X15	Y15	Z15	X16	Y16	Z16	X17	Y17	Z17	X18	Y18	Z18	
300	2.5	164.659	92.4313	38.2374	157.169	117.575	16.5352	151.91	128.646	-10.559	144.358	130.671	-28.9664	144.028	102.861	-30.1184	119.913	114.44	-15.9376	132.667	99.9252	13.9987	130.179	87.1496	-30.9203	110.505	101.849	-12.8772	125.511	85.7662	19.4372	121.172	69.5403	-31.2512	101.383	85.9305	-13.0801	119.096	81.0859	14.1797	123.389	41.3539	-33.71	110.905	46.3753	-53.6405	103.911	49.9889	-71.7034	157.757	40.9225	1.85731	162.444	34.8049	31.8892	177.255	64.9909	20.1779	
301	2.50833	161.464	98.5527	40.533	149.101	115.996	16.4084	143.888	130.022	-7.07915	136.102	130.134	-31.644	139.032	104.005	-29.0116	113.567	113.46	-14.2551	125.777	97.4107	14.4185	122.539	86.0521	-30.5406	103.452	98.7128	-9.10658	122.296	85.1533	21.2242	116.253	71.4084	-30.1839	97.742	84.7716	-13.6932	117.007	80.8066	15.9968	123.555	43.9037	-32.7155	110.689	44.9108	-48.308	99.0886	47.2717	-75.5954	154.368	40.954	5.50943	161.387	34.4269	35.9348	170.955	64.634	17.8036	
302	2.51667	154.559	95.7445	39.3943	143.065	114.574	18.3461	137.314	127.295	-6.06092	129.308	128.908	-26.1306	135.695	104.111	-26.5966	106.803	109.361	-13.1834	120.478	96.6222	15.801	122.774	84.8515	-27.7154	98.1445	94.7092	-7.72733	116.744	84.7918	23.0143	111.585	68.1316	-30.7429	92.1713	79.9798	-10.257	110.272	75.6198	18.1314	121.396	41.5884	-31.3829	106.96	42.8636	-49.4943	95.8708	45.4742	-71.0324	154.66	44.2884	3.7962	160.433	37.293	37.5256	169.411	67.3293	19.1973	
303	2.525	151.077	98.0018	41.3219	137.503	115.108	17.6561	130.151	128.62	-6.41368	122.763	132.626	-24.6787	129.596	101.115	-26.3562	101.101	111.116	-12.485	109.76	97.5571	15.8895	114.251	83.333	-28.1947	93.8348	96.3462	-5.28247	110.612	86.0651	23.2524	112.324	65.5126	-27.7221	86.8068	76.6709	-8.59261	106.612	75.0693	20.3837	116.547	37.6873	-32.5466	104.133	41.2082	-46.0226	94.8244	45.775	-71.4958	151.279	45.6548	3.00764	157.92	38.6588	34.8331	166.669	71.0781	21.7233	
304	2.53333	144.976	95.3783	40.8171	131.518	113.043	19.3179	123.266	122.422	-4.43731	114.731	126.91	-23.8547	120.699	103.777	-26.4089	94.7941	107.623	-14.5784	106.286	92.0151	16.1726	110.658	83.5309	-27.7163	87.3509	90.2573	-7.25044	108.064	84.8077	25.8407	104.267	67.154	-26.6453	83.2159	76.009	-4.09486	100.917	72.2013	21.1351	112.027	35.2184	-30.7527	99.7757	38.9319	-43.2785	86.4046	37.622	-64.63	148.145	43.4923	3.32992	155.724	37.2731	32.6537	165.006	71.095	22.1352	
305	2.54167	139.674	94.7407	42.0981	123.883	111.862	23.8468	114.573	119.672	-4.78302	105.245	123.163	-25.6537	115.758	98.7872	-24.9758	87.7462	104.715	-13.7324	97.9948	91.405	17.2031	107.079	79.0989	-26.5356	81.9282	87.9975	-4.91309	99.7292	82.2244	24.3427	97.1183	63.1365	-24.4963	78.6181	71.6046	-5.19697	98.8306	70.1805	23.2124	107.487	31.6494	-25.2745	90.6543	34.8391	-45.0737	81.3904	38.5774	-62.0378	144.692	40.8683	6.89264	152.51	33.8344	33.0528	158.35	71.1025	22.7221	
306	2.55	134.117	95.815	41.2918	115.394	111.735	22.6042	104.391	121.093	-2.97574	94.6519	121.233	-20.8756	104.845	99.7115	-24.718	79.338	97.3068	-11.0587	92.6372	85.1326	18.1115	97.8334	75.1433	-25.4894	74.7651	83.6726	-2.12379	94.2446	76.3923	25.5314	93.5275	58.0438	-21.3241	74.1743	66.3027	0.159258	97.0272	62.5341	26.7233	103.944	32.3887	-26.4709	88.4134	30.9726	-38.3914	72.875	30.9053	-63.1326	141.716	41.8451	8.11254	149.208	33.9336	37.1881	151.247	67.6762	19.7972	
307	2.55833	126.419	92.4798	41.6962	106.456	104.604	23.1899	94.83	113.755	1.30339	82.3787	117.897	-23.784	93.9165	89.2243	-23.1684	70.5203	93.356	-3.31888	87.5915	84.2931	20.8766	89.1586	71.501	-23.3422	67.7906	75.4068	1.42854	89.6368	72.7883	28.0747	85.4438	49.9723	-19.5064	69.3044	60.2772	3.81306	94.568	59.7933	27.9636	98.401	23.8132	-23.1147	80.9696	25.4691	-38.6004	67.5584	26.1605	-58.429	135.593	37.8932	6.19481	146.495	38.5213	33.441	147.422	68.8891	19.9813	
308	2.56667	119.317	87.0878	41.003	98.0868	100.016	27.3961	82.994	106.784	4.28678	70.3696	105.89	-18.827	86.3382	81.3086	-20.5294	62.8778	77.8362	-0.403717	81.6032	73.5993	21.6233	80.0031	59.5889	-20.11	60.8672	61.8796	1.61758	86.9666	64.6893	28.9296	78.7007	41.5937	-16.7538	63.3074	45.7539	7.83298	87.3742	54.4936	28.4975	97.9267	20.664	-18.4811	78.9302	15.2473	-32.9509	61.4453	11.8511	-54.5992	132.935	35.9562	6.3489	145.856	34.8923	32.5639	139.862	68.036	20.2839	
309	2.575	113.452	83.0668	40.9519	88.6085	94.5019	21.6833	71.2671	98.8749	-0.300203	59.9465	93.8578	-16.771	76.2019	76.6723	-19.0595	55.1964	69.1474	-0.921644	79.3122	67.6149	22.3682	78.2692	50.404	-18.7346	57.1982	51.8689	9.19463	85.0456	57.0816	29.6429	74.3444	34.4293	-14.5093	59.6071	36.3505	10.8366	87.83	45.7492	30.946	93.7774	9.68888	-18.6304	78.5122	5.82463	-29.533	61.7725	-0.669406	-48.2222	133.107	34.6168	8.18872	146.116	31.3859	33.8528	136.266	63.6576	16.8742	
310	2.58333	108.962	81.7502	38.4439	85.3418	85.3533	23.744	66.6228	92.8204	4.01615	54.2597	85.1979	-16.5241	72.3483	67.8185	-19.8626	51.6526	61.262	-2.2709	74.4665	59.4337	21.7896	74.8188	44.2242	-16.623	55.7344	42.9049	8.32907	83.8324	54.9646	30.7173	78.1405	23.7914	-14.9705	59.6642	32.4369	10.8808	85.1533	42.6765	29.0394	94.3863	2.19597	-19.0492	74.6262	0.0690481	-30.5662	58.199	-10.8662	-46.4443	131.888	31.9735	4.24185	144.919	32.2819	32.8683	132.389	61.796	16.2982	
311	2.59167	108.285	75.9393	37.8938	82.9811	82.7174	26.2474	66.2402	82.5485	5.24056	50.2673	78.759	-14.5422	72.7806	59.0393	-21.2099	50.1692	53.0316	-3.4094	75.2785	57.0564	23.7174	72.2252	39.5711	-16.4609	55.4557	36.3851	9.68142	82.7673	47.4977	31.0959	78.4509	21.1161	-14.5681	60.0527	23.2773	12.336	86.1045	36.6477	29.6579	98.2117	-2.79051	-15.3723	79.3075	-11.9091	-27.1096	60.4325	-17.0666	-43.2591	131.512	28.0374	5.37664	146.669	29.3827	30.5199	132.265	58.6175	17.0223	
312	2.6	105.889	73.1768	39.3813	80.2394	76.5786	24.5673	60.2843	76.9815	2.4281	48.017	67.1987	-16.6929	69.5942	54.1211	-21.0187	49.7862	42.7595	-1.39343	70.0835	45.8998	22.8342	73.7911	32.5293	-16.8789	55.9492	30.1532	10.4602	83.2922	42.008	30.4634	77.4818	11.7744	-14.901	62.38	14.478	10.0503	86.6412	31.1713	30.0015	99.3266	-5.5068	-19.3965	80.9819	-14.5015	-27.8463	63.0817	-30.1804	-41.7847	136.539	23.3399	3.84096	146.855	32.2698	28.1298	131.563	60.3037	13.7506	
313	2.60833	103.68	67.025	36.352	76.1837	71.6097	25.0099	58.1797	69.7438	3.37533	44.3261	62.0915	-16.0641	72.8217	43.6159	-20.9686	49.0202	36.1315	-1.59103	69.9985	39.0255	23.1564	75.7726	20.2248	-16.7695	58.9626	18.8005	10.1662	83.6923	35.7208	30.9687	85.2795	3.43297	-15.1541	64.9485	3.767	10.3009	85.9769	21.7397	31.0527	103.823	-11.7596	-18.687	85.28	-20.5936	-29.0029	72.3826	-36.9358	-39.8827	134.129	23.2414	1.94288	152.361	27.6246	31.9498	131.223	54.7641	15.3959	
314	2.61667	100.835	66.3639	40.5585	75.6158	62.2581	27.0141	57.3401	57.2028	1.14669	44.149	51.1399	-16.2417	69.3925	37.4717	-21.6373	49.5434	25.8741	-4.00743	71.6001	30.5243	21.9495	77.8886	16.2257	-17.5092	60.5761	12.2884	11.3324	85.384	24.9555	30.7416	86.9324	-1.2602	-14.7819	68.6834	-1.56652	8.64846	88.4681	18.836	30.2376	109.698	-11.3811	-17.2437	92.538	-24.8372	-27.6681	77.7987	-37.8461	-41.8091	137.575	19.3721	2.08156	149.059	31.2546	29.6119	128.467	55.2731	16.2095	
315	2.625	100.514	58.997	41.2796	73.3891	54.742	27.4483	56.2849	48.8283	4.70057	40.974	43.258	-14.0574	72.7713	30.0763	-21.2669	54.3617	13.7733	-6.15617	74.3114	26.4551	23.1108	81.6721	12.1652	-18.2409	64.6099	0.931952	9.38094	83.3734	21.2992	29.8218	89.3236	-8.2345	-14.5192	74.0205	-9.95873	9.29109	91.961	14.0009	30.4635	113.54	-18.1736	-20.228	97.5835	-29.6979	-27.8578	83.9295	-48.754	-41.8581	139.053	20.9005	1.3848	151.76	30.0551	31.1756	128.584	53.0027	14.1359	
